<svg id="visual" viewBox="0 0 960 540" width="960" height="540" xmlns="http://www.w3.org/2000/svg" xmlns:xlink="http://www.w3.org/1999/xlink" version="1.1"><rect x="0" y="0" width="960" height="540" fill="#EDEFEB"></rect><defs><linearGradient id="grad1_0" x1="43.8%" y1="0%" x2="100%" y2="100%"><stop offset="14.444444444444446%" stop-color="#9fe870" stop-opacity="1"></stop><stop offset="85.55555555555554%" stop-color="#9fe870" stop-opacity="1"></stop></linearGradient></defs><defs><linearGradient id="grad1_1" x1="43.8%" y1="0%" x2="100%" y2="100%"><stop offset="14.444444444444446%" stop-color="#9fe870" stop-opacity="1"></stop><stop offset="85.55555555555554%" stop-color="#ace982" stop-opacity="1"></stop></linearGradient></defs><defs><linearGradient id="grad1_2" x1="43.8%" y1="0%" x2="100%" y2="100%"><stop offset="14.444444444444446%" stop-color="#b9ea94" stop-opacity="1"></stop><stop offset="85.55555555555554%" stop-color="#ace982" stop-opacity="1"></stop></linearGradient></defs><defs><linearGradient id="grad1_3" x1="43.8%" y1="0%" x2="100%" y2="100%"><stop offset="14.444444444444446%" stop-color="#b9ea94" stop-opacity="1"></stop><stop offset="85.55555555555554%" stop-color="#c4eba5" stop-opacity="1"></stop></linearGradient></defs><defs><linearGradient id="grad1_4" x1="43.8%" y1="0%" x2="100%" y2="100%"><stop offset="14.444444444444446%" stop-color="#cfecb7" stop-opacity="1"></stop><stop offset="85.55555555555554%" stop-color="#c4eba5" stop-opacity="1"></stop></linearGradient></defs><defs><linearGradient id="grad1_5" x1="43.8%" y1="0%" x2="100%" y2="100%"><stop offset="14.444444444444446%" stop-color="#cfecb7" stop-opacity="1"></stop><stop offset="85.55555555555554%" stop-color="#daedc8" stop-opacity="1"></stop></linearGradient></defs><defs><linearGradient id="grad1_6" x1="43.8%" y1="0%" x2="100%" y2="100%"><stop offset="14.444444444444446%" stop-color="#e4eed9" stop-opacity="1"></stop><stop offset="85.55555555555554%" stop-color="#daedc8" stop-opacity="1"></stop></linearGradient></defs><defs><linearGradient id="grad1_7" x1="43.8%" y1="0%" x2="100%" y2="100%"><stop offset="14.444444444444446%" stop-color="#e4eed9" stop-opacity="1"></stop><stop offset="85.55555555555554%" stop-color="#edefeb" stop-opacity="1"></stop></linearGradient></defs><defs><linearGradient id="grad2_0" x1="0%" y1="0%" x2="56.3%" y2="100%"><stop offset="14.444444444444446%" stop-color="#9fe870" stop-opacity="1"></stop><stop offset="85.55555555555554%" stop-color="#9fe870" stop-opacity="1"></stop></linearGradient></defs><defs><linearGradient id="grad2_1" x1="0%" y1="0%" x2="56.3%" y2="100%"><stop offset="14.444444444444446%" stop-color="#ace982" stop-opacity="1"></stop><stop offset="85.55555555555554%" stop-color="#9fe870" stop-opacity="1"></stop></linearGradient></defs><defs><linearGradient id="grad2_2" x1="0%" y1="0%" x2="56.3%" y2="100%"><stop offset="14.444444444444446%" stop-color="#ace982" stop-opacity="1"></stop><stop offset="85.55555555555554%" stop-color="#b9ea94" stop-opacity="1"></stop></linearGradient></defs><defs><linearGradient id="grad2_3" x1="0%" y1="0%" x2="56.3%" y2="100%"><stop offset="14.444444444444446%" stop-color="#c4eba5" stop-opacity="1"></stop><stop offset="85.55555555555554%" stop-color="#b9ea94" stop-opacity="1"></stop></linearGradient></defs><defs><linearGradient id="grad2_4" x1="0%" y1="0%" x2="56.3%" y2="100%"><stop offset="14.444444444444446%" stop-color="#c4eba5" stop-opacity="1"></stop><stop offset="85.55555555555554%" stop-color="#cfecb7" stop-opacity="1"></stop></linearGradient></defs><defs><linearGradient id="grad2_5" x1="0%" y1="0%" x2="56.3%" y2="100%"><stop offset="14.444444444444446%" stop-color="#daedc8" stop-opacity="1"></stop><stop offset="85.55555555555554%" stop-color="#cfecb7" stop-opacity="1"></stop></linearGradient></defs><defs><linearGradient id="grad2_6" x1="0%" y1="0%" x2="56.3%" y2="100%"><stop offset="14.444444444444446%" stop-color="#daedc8" stop-opacity="1"></stop><stop offset="85.55555555555554%" stop-color="#e4eed9" stop-opacity="1"></stop></linearGradient></defs><defs><linearGradient id="grad2_7" x1="0%" y1="0%" x2="56.3%" y2="100%"><stop offset="14.444444444444446%" stop-color="#edefeb" stop-opacity="1"></stop><stop offset="85.55555555555554%" stop-color="#e4eed9" stop-opacity="1"></stop></linearGradient></defs><g transform="translate(960, 0)"><path d="M0 216C-30.9 215.6 -61.9 215.2 -82.7 199.6C-103.4 183.9 -114.1 152.9 -131.5 131.5C-149 110.1 -173.3 98.4 -188.5 78.1C-203.7 57.7 -209.8 28.9 -216 0L0 0Z" fill="#e8efe2"></path><path d="M0 189C-27.1 188.7 -54.1 188.3 -72.3 174.6C-90.5 160.9 -99.8 133.8 -115.1 115.1C-130.4 96.4 -151.6 86.1 -164.9 68.3C-178.2 50.5 -183.6 25.3 -189 0L0 0Z" fill="#dfeed1"></path><path d="M0 162C-23.2 161.7 -46.4 161.4 -62 149.7C-77.6 137.9 -85.6 114.7 -98.6 98.6C-111.7 82.6 -129.9 73.8 -141.4 58.6C-152.8 43.3 -157.4 21.7 -162 0L0 0Z" fill="#d5edbf"></path><path d="M0 135C-19.3 134.8 -38.7 134.5 -51.7 124.7C-64.7 114.9 -71.3 95.6 -82.2 82.2C-93.1 68.8 -108.3 61.5 -117.8 48.8C-127.3 36.1 -131.2 18 -135 0L0 0Z" fill="#caecae"></path><path d="M0 108C-15.5 107.8 -30.9 107.6 -41.3 99.8C-51.7 91.9 -57 76.4 -65.8 65.8C-74.5 55.1 -86.6 49.2 -94.2 39C-101.8 28.9 -104.9 14.4 -108 0L0 0Z" fill="#beeb9d"></path><path d="M0 81C-11.6 80.9 -23.2 80.7 -31 74.8C-38.8 69 -42.8 57.3 -49.3 49.3C-55.9 41.3 -65 36.9 -70.7 29.3C-76.4 21.7 -78.7 10.8 -81 0L0 0Z" fill="#b3ea8b"></path><path d="M0 54C-7.7 53.9 -15.5 53.8 -20.7 49.9C-25.9 46 -28.5 38.2 -32.9 32.9C-37.2 27.5 -43.3 24.6 -47.1 19.5C-50.9 14.4 -52.5 7.2 -54 0L0 0Z" fill="#a6e979"></path><path d="M0 27C-3.9 27 -7.7 26.9 -10.3 24.9C-12.9 23 -14.3 19.1 -16.4 16.4C-18.6 13.8 -21.7 12.3 -23.6 9.8C-25.5 7.2 -26.2 3.6 -27 0L0 0Z" fill="#9fe870"></path></g><g transform="translate(0, 540)"><path d="M0 -216C31 -215.6 61.9 -215.3 82.7 -199.6C103.4 -183.8 113.8 -152.8 131.5 -131.5C149.2 -110.2 174.1 -98.7 189.4 -78.5C204.7 -58.2 210.3 -29.1 216 0L0 0Z" fill="#e8efe2"></path><path d="M0 -189C27.1 -188.7 54.2 -188.4 72.3 -174.6C90.5 -160.9 99.6 -133.7 115.1 -115.1C130.6 -96.5 152.3 -86.4 165.7 -68.6C179.1 -50.9 184 -25.4 189 0L0 0Z" fill="#dfeed1"></path><path d="M0 -162C23.2 -161.7 46.5 -161.4 62 -149.7C77.5 -137.9 85.4 -114.6 98.6 -98.6C111.9 -82.7 130.6 -74.1 142 -58.8C153.5 -43.6 157.8 -21.8 162 0L0 0Z" fill="#d5edbf"></path><path d="M0 -135C19.4 -134.8 38.7 -134.5 51.7 -124.7C64.6 -114.9 71.1 -95.5 82.2 -82.2C93.3 -68.9 108.8 -61.7 118.4 -49C127.9 -36.3 131.5 -18.2 135 0L0 0Z" fill="#caecae"></path><path d="M0 -108C15.5 -107.8 31 -107.6 41.3 -99.8C51.7 -91.9 56.9 -76.4 65.8 -65.8C74.6 -55.1 87.1 -49.4 94.7 -39.2C102.3 -29.1 105.2 -14.5 108 0L0 0Z" fill="#beeb9d"></path><path d="M0 -81C11.6 -80.9 23.2 -80.7 31 -74.8C38.8 -68.9 42.7 -57.3 49.3 -49.3C56 -41.3 65.3 -37 71 -29.4C76.8 -21.8 78.9 -10.9 81 0L0 0Z" fill="#b3ea8b"></path><path d="M0 -54C7.7 -53.9 15.5 -53.8 20.7 -49.9C25.8 -46 28.5 -38.2 32.9 -32.9C37.3 -27.6 43.5 -24.7 47.3 -19.6C51.2 -14.5 52.6 -7.3 54 0L0 0Z" fill="#a6e979"></path><path d="M0 -27C3.9 -27 7.7 -26.9 10.3 -24.9C12.9 -23 14.2 -19.1 16.4 -16.4C18.7 -13.8 21.8 -12.3 23.7 -9.8C25.6 -7.3 26.3 -3.6 27 0L0 0Z" fill="#9fe870"></path></g></svg>