<svg id="visual" viewBox="0 0 960 540" width="960" height="540" xmlns="http://www.w3.org/2000/svg" xmlns:xlink="http://www.w3.org/1999/xlink" version="1.1"><rect x="0" y="0" width="960" height="540" fill="#EDEFEB"></rect><defs><linearGradient id="grad1_0" x1="43.8%" y1="0%" x2="100%" y2="100%"><stop offset="14.444444444444446%" stop-color="#9fe870" stop-opacity="1"></stop><stop offset="85.55555555555554%" stop-color="#9fe870" stop-opacity="1"></stop></linearGradient></defs><defs><linearGradient id="grad1_1" x1="43.8%" y1="0%" x2="100%" y2="100%"><stop offset="14.444444444444446%" stop-color="#9fe870" stop-opacity="1"></stop><stop offset="85.55555555555554%" stop-color="#ace982" stop-opacity="1"></stop></linearGradient></defs><defs><linearGradient id="grad1_2" x1="43.8%" y1="0%" x2="100%" y2="100%"><stop offset="14.444444444444446%" stop-color="#b9ea94" stop-opacity="1"></stop><stop offset="85.55555555555554%" stop-color="#ace982" stop-opacity="1"></stop></linearGradient></defs><defs><linearGradient id="grad1_3" x1="43.8%" y1="0%" x2="100%" y2="100%"><stop offset="14.444444444444446%" stop-color="#b9ea94" stop-opacity="1"></stop><stop offset="85.55555555555554%" stop-color="#c4eba5" stop-opacity="1"></stop></linearGradient></defs><defs><linearGradient id="grad1_4" x1="43.8%" y1="0%" x2="100%" y2="100%"><stop offset="14.444444444444446%" stop-color="#cfecb7" stop-opacity="1"></stop><stop offset="85.55555555555554%" stop-color="#c4eba5" stop-opacity="1"></stop></linearGradient></defs><defs><linearGradient id="grad1_5" x1="43.8%" y1="0%" x2="100%" y2="100%"><stop offset="14.444444444444446%" stop-color="#cfecb7" stop-opacity="1"></stop><stop offset="85.55555555555554%" stop-color="#daedc8" stop-opacity="1"></stop></linearGradient></defs><defs><linearGradient id="grad1_6" x1="43.8%" y1="0%" x2="100%" y2="100%"><stop offset="14.444444444444446%" stop-color="#e4eed9" stop-opacity="1"></stop><stop offset="85.55555555555554%" stop-color="#daedc8" stop-opacity="1"></stop></linearGradient></defs><defs><linearGradient id="grad1_7" x1="43.8%" y1="0%" x2="100%" y2="100%"><stop offset="14.444444444444446%" stop-color="#e4eed9" stop-opacity="1"></stop><stop offset="85.55555555555554%" stop-color="#edefeb" stop-opacity="1"></stop></linearGradient></defs><defs><linearGradient id="grad2_0" x1="0%" y1="0%" x2="56.3%" y2="100%"><stop offset="14.444444444444446%" stop-color="#9fe870" stop-opacity="1"></stop><stop offset="85.55555555555554%" stop-color="#9fe870" stop-opacity="1"></stop></linearGradient></defs><defs><linearGradient id="grad2_1" x1="0%" y1="0%" x2="56.3%" y2="100%"><stop offset="14.444444444444446%" stop-color="#ace982" stop-opacity="1"></stop><stop offset="85.55555555555554%" stop-color="#9fe870" stop-opacity="1"></stop></linearGradient></defs><defs><linearGradient id="grad2_2" x1="0%" y1="0%" x2="56.3%" y2="100%"><stop offset="14.444444444444446%" stop-color="#ace982" stop-opacity="1"></stop><stop offset="85.55555555555554%" stop-color="#b9ea94" stop-opacity="1"></stop></linearGradient></defs><defs><linearGradient id="grad2_3" x1="0%" y1="0%" x2="56.3%" y2="100%"><stop offset="14.444444444444446%" stop-color="#c4eba5" stop-opacity="1"></stop><stop offset="85.55555555555554%" stop-color="#b9ea94" stop-opacity="1"></stop></linearGradient></defs><defs><linearGradient id="grad2_4" x1="0%" y1="0%" x2="56.3%" y2="100%"><stop offset="14.444444444444446%" stop-color="#c4eba5" stop-opacity="1"></stop><stop offset="85.55555555555554%" stop-color="#cfecb7" stop-opacity="1"></stop></linearGradient></defs><defs><linearGradient id="grad2_5" x1="0%" y1="0%" x2="56.3%" y2="100%"><stop offset="14.444444444444446%" stop-color="#daedc8" stop-opacity="1"></stop><stop offset="85.55555555555554%" stop-color="#cfecb7" stop-opacity="1"></stop></linearGradient></defs><defs><linearGradient id="grad2_6" x1="0%" y1="0%" x2="56.3%" y2="100%"><stop offset="14.444444444444446%" stop-color="#daedc8" stop-opacity="1"></stop><stop offset="85.55555555555554%" stop-color="#e4eed9" stop-opacity="1"></stop></linearGradient></defs><defs><linearGradient id="grad2_7" x1="0%" y1="0%" x2="56.3%" y2="100%"><stop offset="14.444444444444446%" stop-color="#edefeb" stop-opacity="1"></stop><stop offset="85.55555555555554%" stop-color="#e4eed9" stop-opacity="1"></stop></linearGradient></defs><g transform="translate(960, 0)"><path d="M0 351C-22.9 347.4 -45.8 343.9 -66.9 336.4C-88.1 328.9 -107.4 317.6 -128.2 309.5C-149 301.4 -171.1 296.7 -192.2 287.7C-213.4 278.7 -233.5 265.5 -248.2 248.2C-262.9 230.9 -272.2 209.5 -284.4 190C-296.5 170.5 -311.6 153.1 -320.6 132.8C-329.5 112.5 -332.4 89.5 -336.4 66.9C-340.5 44.3 -345.7 22.2 -351 0L0 0Z" fill="#e8efe2"></path><path d="M0 307.1C-20 304 -40.1 300.9 -58.6 294.4C-77 287.8 -94 277.9 -112.2 270.8C-130.3 263.8 -149.7 259.6 -168.2 251.7C-186.7 243.9 -204.3 232.3 -217.2 217.2C-230 202 -238.2 183.3 -248.8 166.3C-259.5 149.2 -272.7 133.9 -280.5 116.2C-288.3 98.5 -290.8 78.3 -294.4 58.6C-297.9 38.8 -302.5 19.4 -307.1 0L0 0Z" fill="#dfeed1"></path><path d="M0 263.3C-17.2 260.6 -34.3 257.9 -50.2 252.3C-66 246.7 -80.6 238.2 -96.1 232.1C-111.7 226.1 -128.3 222.5 -144.2 215.8C-160 209 -175.1 199.1 -186.1 186.1C-197.2 173.2 -204.1 157.1 -213.3 142.5C-222.4 127.9 -233.7 114.8 -240.4 99.6C-247.2 84.4 -249.3 67.1 -252.3 50.2C-255.3 33.2 -259.3 16.6 -263.2 0L0 0Z" fill="#d5edbf"></path><path d="M0 219.4C-14.3 217.1 -28.6 214.9 -41.8 210.3C-55 205.6 -67.1 198.5 -80.1 193.4C-93.1 188.4 -106.9 185.4 -120.1 179.8C-133.3 174.2 -145.9 165.9 -155.1 155.1C-164.3 144.3 -170.1 130.9 -177.7 118.8C-185.3 106.6 -194.8 95.7 -200.4 83C-206 70.3 -207.7 55.9 -210.3 41.8C-212.8 27.7 -216.1 13.9 -219.4 0L0 0Z" fill="#caecae"></path><path d="M0 175.5C-11.4 173.7 -22.9 171.9 -33.5 168.2C-44 164.5 -53.7 158.8 -64.1 154.7C-74.5 150.7 -85.5 148.3 -96.1 143.8C-106.7 139.4 -116.7 132.8 -124.1 124.1C-131.4 115.4 -136.1 104.7 -142.2 95C-148.3 85.3 -155.8 76.5 -160.3 66.4C-164.8 56.3 -166.2 44.8 -168.2 33.5C-170.2 22.2 -172.9 11.1 -175.5 0L0 0Z" fill="#beeb9d"></path><path d="M0 131.6C-8.6 130.3 -17.2 129 -25.1 126.2C-33 123.4 -40.3 119.1 -48.1 116.1C-55.9 113 -64.2 111.3 -72.1 107.9C-80 104.5 -87.6 99.6 -93.1 93.1C-98.6 86.6 -102.1 78.5 -106.6 71.3C-111.2 64 -116.9 57.4 -120.2 49.8C-123.6 42.2 -124.6 33.6 -126.2 25.1C-127.7 16.6 -129.6 8.3 -131.6 0L0 0Z" fill="#b3ea8b"></path><path d="M0 87.8C-5.7 86.9 -11.4 86 -16.7 84.1C-22 82.2 -26.9 79.4 -32 77.4C-37.2 75.4 -42.8 74.2 -48.1 71.9C-53.3 69.7 -58.4 66.4 -62 62C-65.7 57.7 -68 52.4 -71.1 47.5C-74.1 42.6 -77.9 38.3 -80.1 33.2C-82.4 28.1 -83.1 22.4 -84.1 16.7C-85.1 11.1 -86.4 5.5 -87.7 0L0 0Z" fill="#a6e979"></path><path d="M0 43.9C-2.9 43.4 -5.7 43 -8.4 42.1C-11 41.1 -13.4 39.7 -16 38.7C-18.6 37.7 -21.4 37.1 -24 36C-26.7 34.8 -29.2 33.2 -31 31C-32.9 28.9 -34 26.2 -35.5 23.8C-37.1 21.3 -39 19.1 -40.1 16.6C-41.2 14.1 -41.5 11.2 -42.1 8.4C-42.6 5.5 -43.2 2.8 -43.9 0L0 0Z" fill="#9fe870"></path></g><g transform="translate(0, 540)"><path d="M0 -351C22.5 -346.5 45 -342 66.9 -336.4C88.8 -330.8 110.1 -324 130.9 -316C151.7 -307.9 172.1 -298.6 191.7 -286.9C211.3 -275.1 230.1 -261 243.2 -243.2C256.4 -225.5 264 -204 278.5 -186.1C293.1 -168.2 314.6 -153.9 324.3 -134.3C334 -114.7 332 -89.8 334.4 -66.5C336.9 -43.3 344 -21.6 351 0L0 0Z" fill="#e8efe2"></path><path d="M0 -307.1C19.7 -303.2 39.4 -299.3 58.6 -294.4C77.7 -289.4 96.3 -283.5 114.5 -276.5C132.7 -269.4 150.6 -261.3 167.7 -251C184.9 -240.7 201.3 -228.4 212.8 -212.8C224.4 -197.3 231 -178.5 243.7 -162.9C256.4 -147.2 275.2 -134.7 283.7 -117.5C292.3 -100.4 290.5 -78.6 292.6 -58.2C294.8 -37.8 301 -18.9 307.1 0L0 0Z" fill="#dfeed1"></path><path d="M0 -263.2C16.9 -259.9 33.8 -256.5 50.2 -252.3C66.6 -248.1 82.5 -243 98.2 -237C113.8 -230.9 129.1 -223.9 143.8 -215.1C158.4 -206.4 172.5 -195.8 182.4 -182.4C192.3 -169.1 198 -153 208.9 -139.6C219.8 -126.2 235.9 -115.4 243.2 -100.7C250.5 -86 249 -67.3 250.8 -49.9C252.7 -32.4 258 -16.2 263.3 0L0 0Z" fill="#d5edbf"></path><path d="M0 -219.4C14.1 -216.6 28.1 -213.8 41.8 -210.3C55.5 -206.7 68.8 -202.5 81.8 -197.5C94.8 -192.4 107.6 -186.6 119.8 -179.3C132 -172 143.8 -163.1 152 -152C160.3 -140.9 165 -127.5 174.1 -116.3C183.2 -105.1 196.6 -96.2 202.7 -84C208.8 -71.7 207.5 -56.1 209 -41.6C210.6 -27 215 -13.5 219.4 0L0 0Z" fill="#caecae"></path><path d="M0 -175.5C11.3 -173.3 22.5 -171 33.5 -168.2C44.4 -165.4 55 -162 65.4 -158C75.8 -154 86 -149.3 95.8 -143.4C105.6 -137.6 115 -130.5 121.6 -121.6C128.2 -112.7 132 -102 139.3 -93.1C146.5 -84.1 157.3 -77 162.1 -67.2C167 -57.4 166 -44.9 167.2 -33.3C168.5 -21.6 172 -10.8 175.5 0L0 0Z" fill="#beeb9d"></path><path d="M0 -131.6C8.4 -129.9 16.9 -128.3 25.1 -126.2C33.3 -124 41.3 -121.5 49.1 -118.5C56.9 -115.5 64.5 -112 71.9 -107.6C79.2 -103.2 86.3 -97.9 91.2 -91.2C96.2 -84.5 99 -76.5 104.5 -69.8C109.9 -63.1 118 -57.7 121.6 -50.4C125.3 -43 124.5 -33.7 125.4 -24.9C126.4 -16.2 129 -8.1 131.6 0L0 0Z" fill="#b3ea8b"></path><path d="M0 -87.7C5.6 -86.6 11.3 -85.5 16.7 -84.1C22.2 -82.7 27.5 -81 32.7 -79C37.9 -77 43 -74.6 47.9 -71.7C52.8 -68.8 57.5 -65.3 60.8 -60.8C64.1 -56.4 66 -51 69.6 -46.5C73.3 -42.1 78.6 -38.5 81.1 -33.6C83.5 -28.7 83 -22.4 83.6 -16.6C84.2 -10.8 86 -5.4 87.8 0L0 0Z" fill="#a6e979"></path><path d="M0 -43.9C2.8 -43.3 5.6 -42.8 8.4 -42.1C11.1 -41.3 13.8 -40.5 16.4 -39.5C19 -38.5 21.5 -37.3 24 -35.9C26.4 -34.4 28.8 -32.6 30.4 -30.4C32.1 -28.2 33 -25.5 34.8 -23.3C36.6 -21 39.3 -19.2 40.5 -16.8C41.8 -14.3 41.5 -11.2 41.8 -8.3C42.1 -5.4 43 -2.7 43.9 0L0 0Z" fill="#9fe870"></path></g></svg>