<svg id="visual" viewBox="0 0 540 960" width="540" height="960" xmlns="http://www.w3.org/2000/svg" xmlns:xlink="http://www.w3.org/1999/xlink" version="1.1"><rect x="0" y="0" width="540" height="960" fill="#EDEFEB"></rect><defs><linearGradient id="grad1_0" x1="0%" y1="0%" x2="100%" y2="100%"><stop offset="30%" stop-color="#9fe870" stop-opacity="1"></stop><stop offset="70%" stop-color="#9fe870" stop-opacity="1"></stop></linearGradient></defs><defs><linearGradient id="grad1_1" x1="0%" y1="0%" x2="100%" y2="100%"><stop offset="30%" stop-color="#9fe870" stop-opacity="1"></stop><stop offset="70%" stop-color="#ace982" stop-opacity="1"></stop></linearGradient></defs><defs><linearGradient id="grad1_2" x1="0%" y1="0%" x2="100%" y2="100%"><stop offset="30%" stop-color="#b9ea94" stop-opacity="1"></stop><stop offset="70%" stop-color="#ace982" stop-opacity="1"></stop></linearGradient></defs><defs><linearGradient id="grad1_3" x1="0%" y1="0%" x2="100%" y2="100%"><stop offset="30%" stop-color="#b9ea94" stop-opacity="1"></stop><stop offset="70%" stop-color="#c4eba5" stop-opacity="1"></stop></linearGradient></defs><defs><linearGradient id="grad1_4" x1="0%" y1="0%" x2="100%" y2="100%"><stop offset="30%" stop-color="#cfecb7" stop-opacity="1"></stop><stop offset="70%" stop-color="#c4eba5" stop-opacity="1"></stop></linearGradient></defs><defs><linearGradient id="grad1_5" x1="0%" y1="0%" x2="100%" y2="100%"><stop offset="30%" stop-color="#cfecb7" stop-opacity="1"></stop><stop offset="70%" stop-color="#daedc8" stop-opacity="1"></stop></linearGradient></defs><defs><linearGradient id="grad1_6" x1="0%" y1="0%" x2="100%" y2="100%"><stop offset="30%" stop-color="#e4eed9" stop-opacity="1"></stop><stop offset="70%" stop-color="#daedc8" stop-opacity="1"></stop></linearGradient></defs><defs><linearGradient id="grad1_7" x1="0%" y1="0%" x2="100%" y2="100%"><stop offset="30%" stop-color="#e4eed9" stop-opacity="1"></stop><stop offset="70%" stop-color="#edefeb" stop-opacity="1"></stop></linearGradient></defs><defs><linearGradient id="grad2_0" x1="0%" y1="0%" x2="100%" y2="100%"><stop offset="30%" stop-color="#9fe870" stop-opacity="1"></stop><stop offset="70%" stop-color="#9fe870" stop-opacity="1"></stop></linearGradient></defs><defs><linearGradient id="grad2_1" x1="0%" y1="0%" x2="100%" y2="100%"><stop offset="30%" stop-color="#ace982" stop-opacity="1"></stop><stop offset="70%" stop-color="#9fe870" stop-opacity="1"></stop></linearGradient></defs><defs><linearGradient id="grad2_2" x1="0%" y1="0%" x2="100%" y2="100%"><stop offset="30%" stop-color="#ace982" stop-opacity="1"></stop><stop offset="70%" stop-color="#b9ea94" stop-opacity="1"></stop></linearGradient></defs><defs><linearGradient id="grad2_3" x1="0%" y1="0%" x2="100%" y2="100%"><stop offset="30%" stop-color="#c4eba5" stop-opacity="1"></stop><stop offset="70%" stop-color="#b9ea94" stop-opacity="1"></stop></linearGradient></defs><defs><linearGradient id="grad2_4" x1="0%" y1="0%" x2="100%" y2="100%"><stop offset="30%" stop-color="#c4eba5" stop-opacity="1"></stop><stop offset="70%" stop-color="#cfecb7" stop-opacity="1"></stop></linearGradient></defs><defs><linearGradient id="grad2_5" x1="0%" y1="0%" x2="100%" y2="100%"><stop offset="30%" stop-color="#daedc8" stop-opacity="1"></stop><stop offset="70%" stop-color="#cfecb7" stop-opacity="1"></stop></linearGradient></defs><defs><linearGradient id="grad2_6" x1="0%" y1="0%" x2="100%" y2="100%"><stop offset="30%" stop-color="#daedc8" stop-opacity="1"></stop><stop offset="70%" stop-color="#e4eed9" stop-opacity="1"></stop></linearGradient></defs><defs><linearGradient id="grad2_7" x1="0%" y1="0%" x2="100%" y2="100%"><stop offset="30%" stop-color="#edefeb" stop-opacity="1"></stop><stop offset="70%" stop-color="#e4eed9" stop-opacity="1"></stop></linearGradient></defs><g transform="translate(540, 0)"><path d="M0 297C-40.5 294.1 -80.9 291.2 -113.7 274.4C-146.4 257.5 -171.4 226.7 -198.7 198.7C-226 170.7 -255.8 145.5 -272.5 112.9C-289.3 80.2 -293.2 40.1 -297 0L0 0Z" fill="#e8efe2"></path><path d="M0 259.9C-35.4 257.4 -70.8 254.8 -99.4 240.1C-128.1 225.3 -149.9 198.4 -173.9 173.9C-197.8 149.4 -223.8 127.3 -238.5 98.8C-253.2 70.2 -256.5 35.1 -259.9 0L0 0Z" fill="#dfeed1"></path><path d="M0 222.8C-30.4 220.6 -60.7 218.4 -85.2 205.8C-109.8 193.2 -128.5 170 -149 149C-169.5 128 -191.8 109.2 -204.4 84.7C-217 60.2 -219.9 30.1 -222.7 0L0 0Z" fill="#d5edbf"></path><path d="M0 185.6C-25.3 183.8 -50.6 182 -71 171.5C-91.5 161 -107.1 141.7 -124.2 124.2C-141.3 106.7 -159.9 91 -170.3 70.6C-180.8 50.2 -183.2 25.1 -185.6 0L0 0Z" fill="#caecae"></path><path d="M0 148.5C-20.2 147.1 -40.5 145.6 -56.8 137.2C-73.2 128.8 -85.7 113.3 -99.3 99.3C-113 85.3 -127.9 72.8 -136.3 56.4C-144.7 40.1 -146.6 20.1 -148.5 0L0 0Z" fill="#beeb9d"></path><path d="M0 111.4C-15.2 110.3 -30.4 109.2 -42.6 102.9C-54.9 96.6 -64.3 85 -74.5 74.5C-84.8 64 -95.9 54.6 -102.2 42.3C-108.5 30.1 -109.9 15 -111.4 0L0 0Z" fill="#b3ea8b"></path><path d="M0 74.3C-10.1 73.5 -20.2 72.8 -28.4 68.6C-36.6 64.4 -42.8 56.7 -49.7 49.7C-56.5 42.7 -63.9 36.4 -68.1 28.2C-72.3 20.1 -73.3 10 -74.2 0L0 0Z" fill="#a6e979"></path><path d="M0 37.1C-5.1 36.8 -10.1 36.4 -14.2 34.3C-18.3 32.2 -21.4 28.3 -24.8 24.8C-28.3 21.3 -32 18.2 -34.1 14.1C-36.2 10 -36.6 5 -37.1 0L0 0Z" fill="#9fe870"></path></g><g transform="translate(0, 960)"><path d="M0 -297C31 -271.6 62 -246.2 96.4 -232.8C130.9 -219.5 168.7 -218.2 200.8 -200.8C232.9 -183.4 259.3 -149.8 274.4 -113.7C289.5 -77.5 293.2 -38.7 297 0L0 0Z" fill="#e8efe2"></path><path d="M0 -259.9C27.1 -237.6 54.3 -215.4 84.4 -203.7C114.5 -192 147.6 -191 175.7 -175.7C203.8 -160.5 226.9 -131.1 240.1 -99.4C253.3 -67.8 256.6 -33.9 259.9 0L0 0Z" fill="#dfeed1"></path><path d="M0 -222.7C23.3 -203.7 46.5 -184.6 72.3 -174.6C98.1 -164.6 126.5 -163.7 150.6 -150.6C174.7 -137.6 194.5 -112.4 205.8 -85.2C217.1 -58.1 219.9 -29.1 222.8 0L0 0Z" fill="#d5edbf"></path><path d="M0 -185.6C19.4 -169.7 38.8 -153.8 60.3 -145.5C81.8 -137.2 105.4 -136.4 125.5 -125.5C145.6 -114.6 162.1 -93.6 171.5 -71C180.9 -48.4 183.3 -24.2 185.6 0L0 0Z" fill="#caecae"></path><path d="M0 -148.5C15.5 -135.8 31 -123.1 48.2 -116.4C65.4 -109.7 84.4 -109.1 100.4 -100.4C116.5 -91.7 129.7 -74.9 137.2 -56.8C144.7 -38.7 146.6 -19.4 148.5 0L0 0Z" fill="#beeb9d"></path><path d="M0 -111.4C11.6 -101.8 23.3 -92.3 36.2 -87.3C49.1 -82.3 63.3 -81.8 75.3 -75.3C87.3 -68.8 97.2 -56.2 102.9 -42.6C108.6 -29.1 110 -14.5 111.4 0L0 0Z" fill="#b3ea8b"></path><path d="M0 -74.2C7.8 -67.9 15.5 -61.5 24.1 -58.2C32.7 -54.9 42.2 -54.6 50.2 -50.2C58.2 -45.9 64.8 -37.5 68.6 -28.4C72.4 -19.4 73.3 -9.7 74.3 0L0 0Z" fill="#a6e979"></path><path d="M0 -37.1C3.9 -33.9 7.8 -30.8 12.1 -29.1C16.4 -27.4 21.1 -27.3 25.1 -25.1C29.1 -22.9 32.4 -18.7 34.3 -14.2C36.2 -9.7 36.7 -4.8 37.1 0L0 0Z" fill="#9fe870"></path></g></svg>