<svg id="visual" viewBox="0 0 960 540" width="960" height="540" xmlns="http://www.w3.org/2000/svg" xmlns:xlink="http://www.w3.org/1999/xlink" version="1.1"><rect x="0" y="0" width="960" height="540" fill="#EDEFEB"></rect><defs><linearGradient id="grad1_0" x1="43.8%" y1="100%" x2="100%" y2="0%"><stop offset="14.444444444444446%" stop-color="#9fe870" stop-opacity="1"></stop><stop offset="85.55555555555554%" stop-color="#9fe870" stop-opacity="1"></stop></linearGradient></defs><defs><linearGradient id="grad1_1" x1="43.8%" y1="100%" x2="100%" y2="0%"><stop offset="14.444444444444446%" stop-color="#9fe870" stop-opacity="1"></stop><stop offset="85.55555555555554%" stop-color="#ace982" stop-opacity="1"></stop></linearGradient></defs><defs><linearGradient id="grad1_2" x1="43.8%" y1="100%" x2="100%" y2="0%"><stop offset="14.444444444444446%" stop-color="#b9ea94" stop-opacity="1"></stop><stop offset="85.55555555555554%" stop-color="#ace982" stop-opacity="1"></stop></linearGradient></defs><defs><linearGradient id="grad1_3" x1="43.8%" y1="100%" x2="100%" y2="0%"><stop offset="14.444444444444446%" stop-color="#b9ea94" stop-opacity="1"></stop><stop offset="85.55555555555554%" stop-color="#c4eba5" stop-opacity="1"></stop></linearGradient></defs><defs><linearGradient id="grad1_4" x1="43.8%" y1="100%" x2="100%" y2="0%"><stop offset="14.444444444444446%" stop-color="#cfecb7" stop-opacity="1"></stop><stop offset="85.55555555555554%" stop-color="#c4eba5" stop-opacity="1"></stop></linearGradient></defs><defs><linearGradient id="grad1_5" x1="43.8%" y1="100%" x2="100%" y2="0%"><stop offset="14.444444444444446%" stop-color="#cfecb7" stop-opacity="1"></stop><stop offset="85.55555555555554%" stop-color="#daedc8" stop-opacity="1"></stop></linearGradient></defs><defs><linearGradient id="grad1_6" x1="43.8%" y1="100%" x2="100%" y2="0%"><stop offset="14.444444444444446%" stop-color="#e4eed9" stop-opacity="1"></stop><stop offset="85.55555555555554%" stop-color="#daedc8" stop-opacity="1"></stop></linearGradient></defs><defs><linearGradient id="grad1_7" x1="43.8%" y1="100%" x2="100%" y2="0%"><stop offset="14.444444444444446%" stop-color="#e4eed9" stop-opacity="1"></stop><stop offset="85.55555555555554%" stop-color="#edefeb" stop-opacity="1"></stop></linearGradient></defs><defs><linearGradient id="grad2_0" x1="0%" y1="100%" x2="56.3%" y2="0%"><stop offset="14.444444444444446%" stop-color="#9fe870" stop-opacity="1"></stop><stop offset="85.55555555555554%" stop-color="#9fe870" stop-opacity="1"></stop></linearGradient></defs><defs><linearGradient id="grad2_1" x1="0%" y1="100%" x2="56.3%" y2="0%"><stop offset="14.444444444444446%" stop-color="#ace982" stop-opacity="1"></stop><stop offset="85.55555555555554%" stop-color="#9fe870" stop-opacity="1"></stop></linearGradient></defs><defs><linearGradient id="grad2_2" x1="0%" y1="100%" x2="56.3%" y2="0%"><stop offset="14.444444444444446%" stop-color="#ace982" stop-opacity="1"></stop><stop offset="85.55555555555554%" stop-color="#b9ea94" stop-opacity="1"></stop></linearGradient></defs><defs><linearGradient id="grad2_3" x1="0%" y1="100%" x2="56.3%" y2="0%"><stop offset="14.444444444444446%" stop-color="#c4eba5" stop-opacity="1"></stop><stop offset="85.55555555555554%" stop-color="#b9ea94" stop-opacity="1"></stop></linearGradient></defs><defs><linearGradient id="grad2_4" x1="0%" y1="100%" x2="56.3%" y2="0%"><stop offset="14.444444444444446%" stop-color="#c4eba5" stop-opacity="1"></stop><stop offset="85.55555555555554%" stop-color="#cfecb7" stop-opacity="1"></stop></linearGradient></defs><defs><linearGradient id="grad2_5" x1="0%" y1="100%" x2="56.3%" y2="0%"><stop offset="14.444444444444446%" stop-color="#daedc8" stop-opacity="1"></stop><stop offset="85.55555555555554%" stop-color="#cfecb7" stop-opacity="1"></stop></linearGradient></defs><defs><linearGradient id="grad2_6" x1="0%" y1="100%" x2="56.3%" y2="0%"><stop offset="14.444444444444446%" stop-color="#daedc8" stop-opacity="1"></stop><stop offset="85.55555555555554%" stop-color="#e4eed9" stop-opacity="1"></stop></linearGradient></defs><defs><linearGradient id="grad2_7" x1="0%" y1="100%" x2="56.3%" y2="0%"><stop offset="14.444444444444446%" stop-color="#edefeb" stop-opacity="1"></stop><stop offset="85.55555555555554%" stop-color="#e4eed9" stop-opacity="1"></stop></linearGradient></defs><g transform="translate(960, 540)"><path d="M-297 0C-294.1 -40.5 -291.2 -80.9 -274.4 -113.7C-257.5 -146.4 -226.7 -171.4 -198.7 -198.7C-170.7 -226 -145.5 -255.8 -112.9 -272.5C-80.2 -289.3 -40.1 -293.2 0 -297L0 0Z" fill="#e8efe2"></path><path d="M-259.9 0C-257.4 -35.4 -254.8 -70.8 -240.1 -99.4C-225.3 -128.1 -198.4 -149.9 -173.9 -173.9C-149.4 -197.8 -127.3 -223.8 -98.8 -238.5C-70.2 -253.2 -35.1 -256.5 0 -259.9L0 0Z" fill="#dfeed1"></path><path d="M-222.7 0C-220.6 -30.4 -218.4 -60.7 -205.8 -85.2C-193.2 -109.8 -170 -128.5 -149 -149C-128 -169.5 -109.2 -191.8 -84.7 -204.4C-60.2 -217 -30.1 -219.9 0 -222.7L0 0Z" fill="#d5edbf"></path><path d="M-185.6 0C-183.8 -25.3 -182 -50.6 -171.5 -71C-161 -91.5 -141.7 -107.1 -124.2 -124.2C-106.7 -141.3 -91 -159.9 -70.6 -170.3C-50.2 -180.8 -25.1 -183.2 0 -185.6L0 0Z" fill="#caecae"></path><path d="M-148.5 0C-147.1 -20.2 -145.6 -40.5 -137.2 -56.8C-128.8 -73.2 -113.3 -85.7 -99.3 -99.3C-85.3 -113 -72.8 -127.9 -56.4 -136.3C-40.1 -144.7 -20.1 -146.6 0 -148.5L0 0Z" fill="#beeb9d"></path><path d="M-111.4 0C-110.3 -15.2 -109.2 -30.4 -102.9 -42.6C-96.6 -54.9 -85 -64.3 -74.5 -74.5C-64 -84.8 -54.6 -95.9 -42.3 -102.2C-30.1 -108.5 -15 -109.9 0 -111.4L0 0Z" fill="#b3ea8b"></path><path d="M-74.2 0C-73.5 -10.1 -72.8 -20.2 -68.6 -28.4C-64.4 -36.6 -56.7 -42.8 -49.7 -49.7C-42.7 -56.5 -36.4 -63.9 -28.2 -68.1C-20.1 -72.3 -10 -73.3 0 -74.2L0 0Z" fill="#a6e979"></path><path d="M-37.1 0C-36.8 -5.1 -36.4 -10.1 -34.3 -14.2C-32.2 -18.3 -28.3 -21.4 -24.8 -24.8C-21.3 -28.3 -18.2 -32 -14.1 -34.1C-10 -36.2 -5 -36.6 0 -37.1L0 0Z" fill="#9fe870"></path></g><g transform="translate(0, 0)"><path d="M297 0C271.6 31 246.2 62 232.8 96.4C219.5 130.9 218.2 168.7 200.8 200.8C183.4 232.9 149.8 259.3 113.7 274.4C77.5 289.5 38.7 293.2 0 297L0 0Z" fill="#e8efe2"></path><path d="M259.9 0C237.6 27.1 215.4 54.3 203.7 84.4C192 114.5 191 147.6 175.7 175.7C160.5 203.8 131.1 226.9 99.4 240.1C67.8 253.3 33.9 256.6 0 259.9L0 0Z" fill="#dfeed1"></path><path d="M222.8 0C203.7 23.3 184.6 46.5 174.6 72.3C164.6 98.1 163.7 126.5 150.6 150.6C137.6 174.7 112.4 194.5 85.2 205.8C58.1 217.1 29.1 219.9 0 222.8L0 0Z" fill="#d5edbf"></path><path d="M185.6 0C169.7 19.4 153.8 38.8 145.5 60.3C137.2 81.8 136.4 105.4 125.5 125.5C114.6 145.6 93.6 162.1 71 171.5C48.4 180.9 24.2 183.3 0 185.6L0 0Z" fill="#caecae"></path><path d="M148.5 0C135.8 15.5 123.1 31 116.4 48.2C109.7 65.4 109.1 84.4 100.4 100.4C91.7 116.5 74.9 129.7 56.8 137.2C38.7 144.7 19.4 146.6 0 148.5L0 0Z" fill="#beeb9d"></path><path d="M111.4 0C101.8 11.6 92.3 23.3 87.3 36.2C82.3 49.1 81.8 63.3 75.3 75.3C68.8 87.3 56.2 97.2 42.6 102.9C29.1 108.6 14.5 110 0 111.4L0 0Z" fill="#b3ea8b"></path><path d="M74.3 0C67.9 7.8 61.5 15.5 58.2 24.1C54.9 32.7 54.6 42.2 50.2 50.2C45.9 58.2 37.5 64.8 28.4 68.6C19.4 72.4 9.7 73.3 0 74.3L0 0Z" fill="#a6e979"></path><path d="M37.1 0C33.9 3.9 30.8 7.8 29.1 12.1C27.4 16.4 27.3 21.1 25.1 25.1C22.9 29.1 18.7 32.4 14.2 34.3C9.7 36.2 4.8 36.7 0 37.1L0 0Z" fill="#9fe870"></path></g></svg>