<svg id="visual" viewBox="0 0 960 540" width="960" height="540" xmlns="http://www.w3.org/2000/svg" xmlns:xlink="http://www.w3.org/1999/xlink" version="1.1"><path d="M0 17L26.7 18C53.3 19 106.7 21 160 29.2C213.3 37.3 266.7 51.7 320 51.7C373.3 51.7 426.7 37.3 480 37.3C533.3 37.3 586.7 51.7 640 59.7C693.3 67.7 746.7 69.3 800 64.8C853.3 60.3 906.7 49.7 933.3 44.3L960 39L960 0L933.3 0C906.7 0 853.3 0 800 0C746.7 0 693.3 0 640 0C586.7 0 533.3 0 480 0C426.7 0 373.3 0 320 0C266.7 0 213.3 0 160 0C106.7 0 53.3 0 26.7 0L0 0Z" fill="#d9f2ca"></path><path d="M0 136L26.7 137.8C53.3 139.7 106.7 143.3 160 147.8C213.3 152.3 266.7 157.7 320 146.8C373.3 136 426.7 109 480 100C533.3 91 586.7 100 640 116.2C693.3 132.3 746.7 155.7 800 158.3C853.3 161 906.7 143 933.3 134L960 125L960 37L933.3 42.3C906.7 47.7 853.3 58.3 800 62.8C746.7 67.3 693.3 65.7 640 57.7C586.7 49.7 533.3 35.3 480 35.3C426.7 35.3 373.3 49.7 320 49.7C266.7 49.7 213.3 35.3 160 27.2C106.7 19 53.3 17 26.7 16L0 15Z" fill="#d4f0c3"></path><path d="M0 174L26.7 173C53.3 172 106.7 170 160 178C213.3 186 266.7 204 320 198.7C373.3 193.3 426.7 164.7 480 153C533.3 141.3 586.7 146.7 640 156.5C693.3 166.3 746.7 180.7 800 180.7C853.3 180.7 906.7 166.3 933.3 159.2L960 152L960 123L933.3 132C906.7 141 853.3 159 800 156.3C746.7 153.7 693.3 130.3 640 114.2C586.7 98 533.3 89 480 98C426.7 107 373.3 134 320 144.8C266.7 155.7 213.3 150.3 160 145.8C106.7 141.3 53.3 137.7 26.7 135.8L0 134Z" fill="#cfefbc"></path><path d="M0 320L26.7 308.2C53.3 296.3 106.7 272.7 160 267.2C213.3 261.7 266.7 274.3 320 266.3C373.3 258.3 426.7 229.7 480 227C533.3 224.3 586.7 247.7 640 269.2C693.3 290.7 746.7 310.3 800 302.2C853.3 294 906.7 258 933.3 240L960 222L960 150L933.3 157.2C906.7 164.3 853.3 178.7 800 178.7C746.7 178.7 693.3 164.3 640 154.5C586.7 144.7 533.3 139.3 480 151C426.7 162.7 373.3 191.3 320 196.7C266.7 202 213.3 184 160 176C106.7 168 53.3 170 26.7 171L0 172Z" fill="#caedb5"></path><path d="M0 449L26.7 435.5C53.3 422 106.7 395 160 390.5C213.3 386 266.7 404 320 410.3C373.3 416.7 426.7 411.3 480 409.5C533.3 407.7 586.7 409.3 640 412C693.3 414.7 746.7 418.3 800 416.7C853.3 415 906.7 408 933.3 404.5L960 401L960 220L933.3 238C906.7 256 853.3 292 800 300.2C746.7 308.3 693.3 288.7 640 267.2C586.7 245.7 533.3 222.3 480 225C426.7 227.7 373.3 256.3 320 264.3C266.7 272.3 213.3 259.7 160 265.2C106.7 270.7 53.3 294.3 26.7 306.2L0 318Z" fill="#c6ebae"></path><path d="M0 509L26.7 503.5C53.3 498 106.7 487 160 481.5C213.3 476 266.7 476 320 469.7C373.3 463.3 426.7 450.7 480 448C533.3 445.3 586.7 452.7 640 454.5C693.3 456.3 746.7 452.7 800 459.8C853.3 467 906.7 485 933.3 494L960 503L960 399L933.3 402.5C906.7 406 853.3 413 800 414.7C746.7 416.3 693.3 412.7 640 410C586.7 407.3 533.3 405.7 480 407.5C426.7 409.3 373.3 414.7 320 408.3C266.7 402 213.3 384 160 388.5C106.7 393 53.3 420 26.7 433.5L0 447Z" fill="#c2eaa8"></path><path d="M0 519L26.7 519C53.3 519 106.7 519 160 517.3C213.3 515.7 266.7 512.3 320 506.2C373.3 500 426.7 491 480 484.7C533.3 478.3 586.7 474.7 640 477.3C693.3 480 746.7 489 800 497C853.3 505 906.7 512 933.3 515.5L960 519L960 501L933.3 492C906.7 483 853.3 465 800 457.8C746.7 450.7 693.3 454.3 640 452.5C586.7 450.7 533.3 443.3 480 446C426.7 448.7 373.3 461.3 320 467.7C266.7 474 213.3 474 160 479.5C106.7 485 53.3 496 26.7 501.5L0 507Z" fill="#bde8a1"></path><path d="M0 541L26.7 541C53.3 541 106.7 541 160 541C213.3 541 266.7 541 320 541C373.3 541 426.7 541 480 541C533.3 541 586.7 541 640 541C693.3 541 746.7 541 800 541C853.3 541 906.7 541 933.3 541L960 541L960 517L933.3 513.5C906.7 510 853.3 503 800 495C746.7 487 693.3 478 640 475.3C586.7 472.7 533.3 476.3 480 482.7C426.7 489 373.3 498 320 504.2C266.7 510.3 213.3 513.7 160 515.3C106.7 517 53.3 517 26.7 517L0 517Z" fill="#b9e79b"></path></svg>