<svg id="visual" viewBox="0 0 900 600" width="900" height="600" xmlns="http://www.w3.org/2000/svg" xmlns:xlink="http://www.w3.org/1999/xlink" version="1.1"><path d="M0 145L16.7 136.5C33.3 128 66.7 111 100 104.8C133.3 98.7 166.7 103.3 200 104C233.3 104.7 266.7 101.3 300 100.7C333.3 100 366.7 102 400 106.5C433.3 111 466.7 118 500 123.8C533.3 129.7 566.7 134.3 600 130.3C633.3 126.3 666.7 113.7 700 111.2C733.3 108.7 766.7 116.3 800 114C833.3 111.7 866.7 99.3 883.3 93.2L900 87L900 0L883.3 0C866.7 0 833.3 0 800 0C766.7 0 733.3 0 700 0C666.7 0 633.3 0 600 0C566.7 0 533.3 0 500 0C466.7 0 433.3 0 400 0C366.7 0 333.3 0 300 0C266.7 0 233.3 0 200 0C166.7 0 133.3 0 100 0C66.7 0 33.3 0 16.7 0L0 0Z" fill="#163300"></path><path d="M0 80L16.7 83.3C33.3 86.7 66.7 93.3 100 90.7C133.3 88 166.7 76 200 77.2C233.3 78.3 266.7 92.7 300 94.2C333.3 95.7 366.7 84.3 400 80.3C433.3 76.3 466.7 79.7 500 84.2C533.3 88.7 566.7 94.3 600 95.5C633.3 96.7 666.7 93.3 700 89.2C733.3 85 766.7 80 800 81.5C833.3 83 866.7 91 883.3 95L900 99L900 0L883.3 0C866.7 0 833.3 0 800 0C766.7 0 733.3 0 700 0C666.7 0 633.3 0 600 0C566.7 0 533.3 0 500 0C466.7 0 433.3 0 400 0C366.7 0 333.3 0 300 0C266.7 0 233.3 0 200 0C166.7 0 133.3 0 100 0C66.7 0 33.3 0 16.7 0L0 0Z" fill="#3f6a24"></path><path d="M0 80L16.7 78C33.3 76 66.7 72 100 69.2C133.3 66.3 166.7 64.7 200 62.5C233.3 60.3 266.7 57.7 300 57.7C333.3 57.7 366.7 60.3 400 61.2C433.3 62 466.7 61 500 57.2C533.3 53.3 566.7 46.7 600 49C633.3 51.3 666.7 62.7 700 70C733.3 77.3 766.7 80.7 800 78C833.3 75.3 866.7 66.7 883.3 62.3L900 58L900 0L883.3 0C866.7 0 833.3 0 800 0C766.7 0 733.3 0 700 0C666.7 0 633.3 0 600 0C566.7 0 533.3 0 500 0C466.7 0 433.3 0 400 0C366.7 0 333.3 0 300 0C266.7 0 233.3 0 200 0C166.7 0 133.3 0 100 0C66.7 0 33.3 0 16.7 0L0 0Z" fill="#6ea749"></path><path d="M0 53L16.7 51.8C33.3 50.7 66.7 48.3 100 45.5C133.3 42.7 166.7 39.3 200 34.8C233.3 30.3 266.7 24.7 300 23.2C333.3 21.7 366.7 24.3 400 25.5C433.3 26.7 466.7 26.3 500 29C533.3 31.7 566.7 37.3 600 39.5C633.3 41.7 666.7 40.3 700 36.8C733.3 33.3 766.7 27.7 800 28.8C833.3 30 866.7 38 883.3 42L900 46L900 0L883.3 0C866.7 0 833.3 0 800 0C766.7 0 733.3 0 700 0C666.7 0 633.3 0 600 0C566.7 0 533.3 0 500 0C466.7 0 433.3 0 400 0C366.7 0 333.3 0 300 0C266.7 0 233.3 0 200 0C166.7 0 133.3 0 100 0C66.7 0 33.3 0 16.7 0L0 0Z" fill="#9fe870"></path></svg>